<?xml version="1.0" encoding="UTF-8"?>
<!-- Generator: Adobe Illustrator 14.0.0, SVG Export Plug-In . SVG Version: 6.00 Build 43363)  -->
<!DOCTYPE svg PUBLIC "-//W3C//DTD SVG 1.1//EN" "http://www.w3.org/Graphics/SVG/1.1/DTD/svg11.dtd">
<svg version="1.1" id="Layer_1" xmlns="http://www.w3.org/2000/svg" xmlns:xlink="http://www.w3.org/1999/xlink" x="0px" y="0px" width="150px" height="150px" viewBox="0 0 150 150" enable-background="new 0 0 150 150" xml:space="preserve">
<path fill="#7F7F7F" d="M35.835,88.622c-6.3-6.304-9.459-14.567-9.484-22.845l-8.108-0.002c0.026,10.355,3.974,20.704,11.856,28.584  c7.885,7.88,18.229,11.828,28.584,11.854l-0.001-8.106C50.406,98.081,42.137,94.923,35.835,88.622z"/>
<path fill="#7F7F7F" d="M22.929,101.527C13.07,91.668,8.134,78.721,8.108,65.776L0,65.771c0.025,15.026,5.754,30.051,17.194,41.495  c11.442,11.437,26.461,17.17,41.491,17.188v-8.106C45.733,116.327,32.791,111.385,22.929,101.527z"/>
<path fill="#7F7F7F" d="M94.785,54.357l-3.564-0.424c4.706-5.777,4.367-14.296-1.02-19.678c-5.377-5.385-13.896-5.724-19.678-1.018  l-0.422-3.563L40.427,0L14.352,26.073l29.673,29.675l3.564,0.424c-4.703,5.779-4.363,14.295,1.02,19.678  c5.382,5.385,13.898,5.721,19.676,1.021l0.423,3.562l29.677,29.672l26.074-26.069L94.785,54.357z M47.772,48.023l-21.948-21.95  l14.603-14.601l21.951,21.95l0.833,7.02l-8.417,8.414L47.772,48.023z M98.385,98.633L76.434,76.684l-0.832-7.021l8.416-8.415  l7.021,0.831l21.946,21.954L98.385,98.633z"/>
</svg>